<svg aria-label="QQ Pay" xmlns="http://www.w3.org/2000/svg" width="400" height="400" viewBox="0 0 57 57" shape-rendering="crispEdges"><path fill="#ffffff" d="M0 0h57v57H0z"></path><path stroke="#000000" d="M4 4.5h7m2 0h1m1 0h2m2 0h1m1 0h1m2 0h1m2 0h1m1 0h5m2 0h1m1 0h1m2 0h1m2 0h1m1 0h7M4 5.5h1m5 0h1m2 0h3m1 0h4m1 0h1m1 0h1m1 0h2m4 0h1m1 0h4m1 0h1m2 0h3m1 0h1m5 0h1M4 6.5h1m1 0h3m1 0h1m1 0h3m1 0h6m1 0h1m1 0h1m2 0h3m3 0h1m1 0h2m1 0h2m2 0h2m1 0h1m1 0h3m1 0h1M4 7.5h1m1 0h3m1 0h1m1 0h2m1 0h1m5 0h1m4 0h2m3 0h1m1 0h1m1 0h1m3 0h3m1 0h1m2 0h1m1 0h3m1 0h1M4 8.5h1m1 0h3m1 0h1m1 0h1m4 0h1m3 0h10m2 0h4m3 0h2m4 0h1m1 0h3m1 0h1M4 9.5h1m5 0h1m1 0h4m1 0h2m1 0h1m3 0h1m1 0h1m3 0h1m1 0h1m4 0h6m3 0h1m5 0h1M4 10.5h7m1 0h1m1 0h1m1 0h1m1 0h1m1 0h1m1 0h1m1 0h1m1 0h1m1 0h1m1 0h1m1 0h1m1 0h1m1 0h1m1 0h1m1 0h1m1 0h1m1 0h1m1 0h7M12 11.5h1m1 0h4m2 0h2m1 0h4m3 0h5m1 0h1m4 0h1m2 0h1M4 12.5h1m1 0h5m5 0h1m2 0h3m1 0h1m1 0h7m1 0h3m1 0h5m2 0h1m1 0h5M4 13.5h4m1 0h1m2 0h1m2 0h1m1 0h2m1 0h2m1 0h4m2 0h1m3 0h2m2 0h1m3 0h1m1 0h1m1 0h1m1 0h1m1 0h1M4 14.5h2m4 0h1m2 0h2m2 0h1m3 0h1m1 0h2m2 0h1m2 0h2m1 0h1m1 0h2m1 0h3m1 0h1m2 0h1m1 0h1m4 0h1M5 15.5h1m1 0h2m3 0h1m2 0h1m1 0h1m3 0h2m6 0h1m1 0h2m3 0h1m1 0h1m3 0h1m5 0h1m2 0h2M4 16.5h1m5 0h1m1 0h2m3 0h2m1 0h1m1 0h2m6 0h1m2 0h3m2 0h3m1 0h3m2 0h1m2 0h3M4 17.5h2m2 0h1m2 0h1m1 0h2m1 0h4m1 0h1m3 0h1m1 0h1m1 0h1m3 0h2m1 0h1m4 0h1m4 0h2m1 0h1m1 0h1M8 18.5h1m1 0h1m1 0h1m1 0h1m2 0h3m3 0h1m3 0h1m2 0h2m3 0h2m1 0h1m1 0h5m3 0h1m1 0h3M4 19.5h1m4 0h1m1 0h4m1 0h1m1 0h1m1 0h3m2 0h1m2 0h1m5 0h2m1 0h1m1 0h2m1 0h1m1 0h2m1 0h4m1 0h1M4 20.5h8m1 0h2m1 0h4m4 0h1m2 0h2m2 0h1m1 0h2m5 0h1m2 0h3m3 0h1M4 21.5h2m2 0h2m1 0h1m1 0h2m1 0h1m6 0h3m1 0h2m5 0h2m1 0h1m1 0h2m4 0h3M7 22.5h5m1 0h1m2 0h2m1 0h2m1 0h1m1 0h1m1 0h2m2 0h2m1 0h2m5 0h2m1 0h1m3 0h3m2 0h1M4 23.5h1m4 0h1m2 0h1m1 0h1m3 0h1m1 0h1m2 0h1m8 0h2m1 0h2m1 0h1m1 0h1m4 0h1m1 0h2m2 0h1M4 24.5h2m1 0h2m1 0h1m1 0h2m1 0h5m1 0h1m4 0h1m1 0h2m1 0h1m1 0h1m1 0h1m2 0h4m1 0h2m5 0h1m1 0h1M5 25.5h2m2 0h1m1 0h1m2 0h1m4 0h2m2 0h1m1 0h1m2 0h1m4 0h5m1 0h1m1 0h1m1 0h1m1 0h4m1 0h1M7 26.5h8m1 0h2m1 0h5m1 0h6m4 0h4m1 0h1m1 0h1m1 0h9M4 27.5h1m1 0h3m3 0h2m2 0h3m2 0h3m2 0h1m3 0h1m1 0h3m1 0h1m1 0h1m2 0h4m3 0h1m2 0h2M6 28.5h3m1 0h1m1 0h2m2 0h1m3 0h1m1 0h1m1 0h3m1 0h1m1 0h2m2 0h2m4 0h1m1 0h3m1 0h1m1 0h5M5 29.5h4m3 0h4m1 0h3m2 0h2m2 0h1m3 0h1m3 0h1m4 0h3m2 0h1m3 0h2M4 30.5h2m1 0h6m2 0h1m1 0h1m1 0h2m1 0h9m1 0h1m2 0h2m1 0h1m2 0h2m1 0h6m1 0h2M14 31.5h4m1 0h1m1 0h1m3 0h1m1 0h3m1 0h4m1 0h3m2 0h1m3 0h1m6 0h1M4 32.5h2m1 0h1m2 0h2m1 0h2m3 0h5m3 0h5m2 0h1m3 0h1m1 0h6m1 0h2m2 0h3M5 33.5h2m7 0h1m2 0h1m1 0h2m1 0h4m2 0h1m3 0h4m5 0h1m5 0h1m1 0h1M4 34.5h7m2 0h1m2 0h2m1 0h4m1 0h6m8 0h2m1 0h1m4 0h1m2 0h4M4 35.5h5m4 0h2m2 0h1m2 0h5m3 0h1m1 0h2m1 0h1m4 0h1m1 0h1m1 0h3m1 0h2m3 0h1M4 36.5h2m1 0h1m2 0h1m1 0h3m1 0h1m1 0h3m1 0h1m1 0h1m1 0h3m3 0h1m2 0h5m3 0h1m1 0h1m1 0h1m3 0h2M4 37.5h6m2 0h2m1 0h3m3 0h3m4 0h2m1 0h3m2 0h1m1 0h1m2 0h3m1 0h1m1 0h1m3 0h2M6 38.5h1m3 0h4m4 0h1m1 0h1m1 0h1m1 0h3m1 0h2m2 0h1m1 0h4m1 0h1m4 0h1m1 0h4m1 0h2M5 39.5h1m5 0h2m1 0h4m2 0h3m2 0h1m1 0h2m1 0h1m1 0h2m1 0h1m2 0h2m2 0h1m1 0h1M4 40.5h2m2 0h1m1 0h2m1 0h1m1 0h1m1 0h1m4 0h4m1 0h1m2 0h1m2 0h3m1 0h2m1 0h2m1 0h3m2 0h1m1 0h1m1 0h1M5 41.5h5m1 0h3m1 0h1m1 0h1m1 0h1m1 0h3m1 0h2m1 0h1m2 0h2m1 0h1m4 0h3m1 0h5m1 0h3M5 42.5h1m3 0h2m2 0h2m2 0h1m1 0h2m1 0h2m2 0h2m1 0h2m5 0h1m1 0h3m1 0h1m3 0h1m2 0h1m1 0h2M5 43.5h3m6 0h2m1 0h3m5 0h2m1 0h1m3 0h3m1 0h1m2 0h1m4 0h2m1 0h1M4 44.5h3m3 0h5m6 0h2m1 0h1m1 0h6m3 0h1m2 0h3m2 0h6m1 0h1M12 45.5h3m1 0h2m3 0h3m1 0h2m3 0h1m2 0h3m3 0h3m2 0h1m3 0h1M4 46.5h7m3 0h3m2 0h1m2 0h1m1 0h1m1 0h1m1 0h1m1 0h2m5 0h2m1 0h1m1 0h1m1 0h1m1 0h1m1 0h1m1 0h3M4 47.5h1m5 0h1m1 0h1m5 0h1m1 0h1m1 0h1m2 0h2m3 0h1m1 0h2m1 0h4m3 0h1m1 0h1m3 0h1m2 0h1M4 48.5h1m1 0h3m1 0h1m1 0h2m1 0h1m1 0h7m2 0h5m4 0h1m1 0h1m1 0h3m2 0h8M4 49.5h1m1 0h3m1 0h1m1 0h3m1 0h3m1 0h1m1 0h1m4 0h1m1 0h2m1 0h1m1 0h2m3 0h2m2 0h2m1 0h4M4 50.5h1m1 0h3m1 0h1m1 0h1m1 0h2m1 0h3m3 0h1m1 0h1m1 0h2m1 0h1m1 0h1m5 0h1m1 0h1m1 0h1m2 0h1m1 0h1m2 0h3M4 51.5h1m5 0h1m3 0h2m1 0h3m2 0h1m2 0h1m1 0h4m3 0h2m1 0h1m2 0h1m3 0h3m5 0h1M4 52.5h7m1 0h1m3 0h4m1 0h2m1 0h5m2 0h1m1 0h2m5 0h1m2 0h1m1 0h2m4 0h2"></path></svg>